<svg id="visual" viewBox="0 0 960 600" width="960" height="600" xmlns="http://www.w3.org/2000/svg" xmlns:xlink="http://www.w3.org/1999/xlink" version="1.1"><rect x="0" y="0" width="960" height="600" fill="#6A45AB"></rect><path d="M0 353L20 352.8C40 352.7 80 352.3 120 365.8C160 379.3 200 406.7 240 422.3C280 438 320 442 360 436.7C400 431.3 440 416.7 480 411.5C520 406.3 560 410.7 600 411.7C640 412.7 680 410.3 720 400C760 389.7 800 371.3 840 367.5C880 363.7 920 374.3 940 379.7L960 385L960 601L940 601C920 601 880 601 840 601C800 601 760 601 720 601C680 601 640 601 600 601C560 601 520 601 480 601C440 601 400 601 360 601C320 601 280 601 240 601C200 601 160 601 120 601C80 601 40 601 20 601L0 601Z" fill="#8c4bb1"></path><path d="M0 422L20 430.2C40 438.3 80 454.7 120 450.2C160 445.7 200 420.3 240 419.5C280 418.7 320 442.3 360 445C400 447.7 440 429.3 480 429.7C520 430 560 449 600 451C640 453 680 438 720 430.5C760 423 800 423 840 432.3C880 441.7 920 460.3 940 469.7L960 479L960 601L940 601C920 601 880 601 840 601C800 601 760 601 720 601C680 601 640 601 600 601C560 601 520 601 480 601C440 601 400 601 360 601C320 601 280 601 240 601C200 601 160 601 120 601C80 601 40 601 20 601L0 601Z" fill="#aa78c5"></path><path d="M0 444L20 446.8C40 449.7 80 455.3 120 466.3C160 477.3 200 493.7 240 498.2C280 502.7 320 495.3 360 490.7C400 486 440 484 480 483.2C520 482.3 560 482.7 600 481.7C640 480.7 680 478.3 720 475C760 471.7 800 467.3 840 465C880 462.7 920 462.3 940 462.2L960 462L960 601L940 601C920 601 880 601 840 601C800 601 760 601 720 601C680 601 640 601 600 601C560 601 520 601 480 601C440 601 400 601 360 601C320 601 280 601 240 601C200 601 160 601 120 601C80 601 40 601 20 601L0 601Z" fill="#c7a4d8"></path><path d="M0 515L20 513.2C40 511.3 80 507.7 120 512C160 516.3 200 528.7 240 528.8C280 529 320 517 360 509.8C400 502.7 440 500.3 480 500.5C520 500.7 560 503.3 600 507.5C640 511.7 680 517.3 720 520.8C760 524.3 800 525.7 840 528.3C880 531 920 535 940 537L960 539L960 601L940 601C920 601 880 601 840 601C800 601 760 601 720 601C680 601 640 601 600 601C560 601 520 601 480 601C440 601 400 601 360 601C320 601 280 601 240 601C200 601 160 601 120 601C80 601 40 601 20 601L0 601Z" fill="#e3d1ec"></path><path d="M0 525L20 526.8C40 528.7 80 532.3 120 535C160 537.7 200 539.3 240 543.2C280 547 320 553 360 556.5C400 560 440 561 480 563C520 565 560 568 600 567.5C640 567 680 563 720 557.5C760 552 800 545 840 545.5C880 546 920 554 940 558L960 562L960 601L940 601C920 601 880 601 840 601C800 601 760 601 720 601C680 601 640 601 600 601C560 601 520 601 480 601C440 601 400 601 360 601C320 601 280 601 240 601C200 601 160 601 120 601C80 601 40 601 20 601L0 601Z" fill="#ffffff"></path></svg>