<svg id="visual" viewBox="0 0 960 300" width="960" height="300" xmlns="http://www.w3.org/2000/svg" xmlns:xlink="http://www.w3.org/1999/xlink" version="1.1"><path d="M0 107L20 108.5C40 110 80 113 120 112.2C160 111.3 200 106.7 240 106.8C280 107 320 112 360 114.8C400 117.7 440 118.3 480 117.5C520 116.7 560 114.3 600 107.3C640 100.3 680 88.7 720 86.2C760 83.7 800 90.3 840 95.2C880 100 920 103 940 104.5L960 106L960 0L940 0C920 0 880 0 840 0C800 0 760 0 720 0C680 0 640 0 600 0C560 0 520 0 480 0C440 0 400 0 360 0C320 0 280 0 240 0C200 0 160 0 120 0C80 0 40 0 20 0L0 0Z" fill="#e562bb"></path><path d="M0 94L20 89C40 84 80 74 120 70.8C160 67.7 200 71.3 240 73C280 74.7 320 74.3 360 76C400 77.7 440 81.3 480 84C520 86.7 560 88.3 600 90.3C640 92.3 680 94.7 720 94C760 93.3 800 89.7 840 88.5C880 87.3 920 88.7 940 89.3L960 90L960 0L940 0C920 0 880 0 840 0C800 0 760 0 720 0C680 0 640 0 600 0C560 0 520 0 480 0C440 0 400 0 360 0C320 0 280 0 240 0C200 0 160 0 120 0C80 0 40 0 20 0L0 0Z" fill="#c959b9"></path><path d="M0 60L20 62C40 64 80 68 120 67.5C160 67 200 62 240 61.3C280 60.7 320 64.3 360 64.8C400 65.3 440 62.7 480 60C520 57.3 560 54.7 600 53.3C640 52 680 52 720 51.8C760 51.7 800 51.3 840 51.2C880 51 920 51 940 51L960 51L960 0L940 0C920 0 880 0 840 0C800 0 760 0 720 0C680 0 640 0 600 0C560 0 520 0 480 0C440 0 400 0 360 0C320 0 280 0 240 0C200 0 160 0 120 0C80 0 40 0 20 0L0 0Z" fill="#ac51b6"></path><path d="M0 36L20 38.5C40 41 80 46 120 49.7C160 53.3 200 55.7 240 56.2C280 56.7 320 55.3 360 53.2C400 51 440 48 480 46.2C520 44.3 560 43.7 600 45.7C640 47.7 680 52.3 720 53C760 53.7 800 50.3 840 46.7C880 43 920 39 940 37L960 35L960 0L940 0C920 0 880 0 840 0C800 0 760 0 720 0C680 0 640 0 600 0C560 0 520 0 480 0C440 0 400 0 360 0C320 0 280 0 240 0C200 0 160 0 120 0C80 0 40 0 20 0L0 0Z" fill="#8c4bb1"></path><path d="M0 32L20 29.7C40 27.3 80 22.7 120 20C160 17.3 200 16.7 240 18.5C280 20.3 320 24.7 360 24.2C400 23.7 440 18.3 480 15.8C520 13.3 560 13.7 600 15.3C640 17 680 20 720 21.5C760 23 800 23 840 23.3C880 23.7 920 24.3 940 24.7L960 25L960 0L940 0C920 0 880 0 840 0C800 0 760 0 720 0C680 0 640 0 600 0C560 0 520 0 480 0C440 0 400 0 360 0C320 0 280 0 240 0C200 0 160 0 120 0C80 0 40 0 20 0L0 0Z" fill="#6a45ab"></path></svg>